<?xml version="1.0" encoding="utf-8"?>
<!-- Generator: Adobe Illustrator 17.0.0, SVG Export Plug-In . SVG Version: 6.00 Build 0)  -->
<!DOCTYPE svg PUBLIC "-//W3C//DTD SVG 1.1//EN" "http://www.w3.org/Graphics/SVG/1.1/DTD/svg11.dtd">
<svg version="1.1" xmlns:sketch="http://www.bohemiancoding.com/sketch/ns"
	 xmlns="http://www.w3.org/2000/svg" xmlns:xlink="http://www.w3.org/1999/xlink" x="0px" y="0px" width="137px" height="23px"
	 viewBox="0 0 137 23" enable-background="new 0 0 137 23" xml:space="preserve">
<g sketch:type="MSPage">
	<g id="Artboard-18" transform="translate(-69.000000, -62.000000)" sketch:type="MSArtboardGroup">
		<path id="каваман-copy" sketch:type="MSShapeGroup" fill="#6D4320" d="M69.76,69v15h5.82v-6.15h1.95L80.38,84h6.48
			l-4.41-7.98L86.71,69h-6.15l-3.03,5.43h-1.95V69H69.76z M105.7,69h-5.61l-0.21,1.89c-0.96-1.56-2.61-2.37-4.68-2.37
			c-2.22,0-3.93,0.87-5.13,2.22c-1.08,1.2-2.01,3.09-2.01,5.76s0.93,4.56,2.01,5.76c1.2,1.35,2.91,2.22,5.13,2.22
			c3.15,0,4.32-1.77,4.68-2.43l0.21,1.95h5.61V69z M100.03,76.41c0,0.72-0.06,1.8-0.6,2.64c-0.54,0.84-1.32,1.23-2.34,1.23
			c-0.99,0-1.8-0.39-2.37-1.26c-0.54-0.84-0.6-1.83-0.6-2.61c0-0.75,0.06-1.74,0.6-2.58c0.57-0.87,1.38-1.26,2.37-1.26
			c1.02,0,1.8,0.39,2.34,1.23C99.91,74.55,100.03,75.48,100.03,76.41L100.03,76.41z M115.9,71.1v3.45h0.81
			c0.6,0,1.62,0.06,2.25,0.93c0.24,0.33,0.48,0.93,0.48,2.25c0,0.63-0.09,1.44-0.57,2.04c-0.39,0.48-1.11,0.84-2.01,0.84
			c-1.11,0.03-1.98-0.45-2.43-1.62c-0.3-0.81-0.27-1.89-0.27-3.3v-4.95c0-1.89,0.06-2.76,0.36-3.33c0.27-0.51,0.87-1.2,2.13-1.2
			c0.69,0,1.38,0.21,1.83,0.63c0.54,0.51,0.6,1.17,0.6,1.74c0,0.54-0.03,1.2-0.42,1.71c-0.57,0.75-1.41,0.81-1.95,0.81H115.9z
			 M108.4,70.92v4.59c0,1.71,0.12,4.74,2.19,6.87c1.08,1.11,3.03,2.22,6.3,2.22c0.81,0,3.54-0.09,5.64-1.35
			c1.77-1.05,2.82-2.64,2.85-5.01c0.03-1.83-0.6-3.06-1.38-3.87c-0.18-0.21-1.23-1.26-3.06-1.62c1.08-0.24,1.95-0.81,2.52-1.44
			c0.63-0.69,1.11-1.71,1.11-3.21c0-2.16-1.02-3.63-2.55-4.53c-1.95-1.14-4.77-1.17-5.34-1.17c-2.64,0-4.74,0.75-6.06,2.01
			C108.64,66.27,108.4,68.82,108.4,70.92L108.4,70.92z M144.82,69h-5.61L139,70.89c-0.96-1.56-2.61-2.37-4.68-2.37
			c-2.22,0-3.93,0.87-5.13,2.22c-1.08,1.2-2.01,3.09-2.01,5.76s0.93,4.56,2.01,5.76c1.2,1.35,2.91,2.22,5.13,2.22
			c3.15,0,4.32-1.77,4.68-2.43l0.21,1.95h5.61V69z M139.15,76.41c0,0.72-0.06,1.8-0.6,2.64c-0.54,0.84-1.32,1.23-2.34,1.23
			c-0.99,0-1.8-0.39-2.37-1.26c-0.54-0.84-0.6-1.83-0.6-2.61c0-0.75,0.06-1.74,0.6-2.58c0.57-0.87,1.38-1.26,2.37-1.26
			c1.02,0,1.8,0.39,2.34,1.23C139.03,74.55,139.15,75.48,139.15,76.41L139.15,76.41z M147.82,69v15h5.64v-9.78l3.66,5.01l3.66-5.01
			V84h5.64V69h-5.94l-3.36,4.56L153.76,69H147.82z M186.46,69h-5.61l-0.21,1.89c-0.96-1.56-2.61-2.37-4.68-2.37
			c-2.22,0-3.93,0.87-5.13,2.22c-1.08,1.2-2.01,3.09-2.01,5.76s0.93,4.56,2.01,5.76c1.2,1.35,2.91,2.22,5.13,2.22
			c3.15,0,4.32-1.77,4.68-2.43l0.21,1.95h5.61V69z M180.79,76.41c0,0.72-0.06,1.8-0.6,2.64c-0.54,0.84-1.32,1.23-2.34,1.23
			c-0.99,0-1.8-0.39-2.37-1.26c-0.54-0.84-0.6-1.83-0.6-2.61c0-0.75,0.06-1.74,0.6-2.58c0.57-0.87,1.38-1.26,2.37-1.26
			c1.02,0,1.8,0.39,2.34,1.23C180.67,74.55,180.79,75.48,180.79,76.41L180.79,76.41z M189.46,69v15h5.82v-5.91h4.14V84h5.82V69
			h-5.82v5.28h-4.14V69H189.46z"/>
	</g>
</g>
</svg>
