<?xml version="1.0" encoding="utf-8"?>
<!-- Generator: Adobe Illustrator 17.0.0, SVG Export Plug-In . SVG Version: 6.00 Build 0)  -->
<!DOCTYPE svg PUBLIC "-//W3C//DTD SVG 1.1//EN" "http://www.w3.org/Graphics/SVG/1.1/DTD/svg11.dtd">
<svg version="1.1" xmlns:sketch="http://www.bohemiancoding.com/sketch/ns"
	 xmlns="http://www.w3.org/2000/svg" xmlns:xlink="http://www.w3.org/1999/xlink" x="0px" y="0px" width="17px" height="16px"
	 viewBox="0 0 17 16" enable-background="new 0 0 17 16" xml:space="preserve">
<g sketch:type="MSPage">
	<g id="Artboard-18" transform="translate(-359.000000, -579.000000)" sketch:type="MSArtboardGroup">
		<path id="_x2605_-copy" fill="#ffffff" d="M367.392,582.722l0.918,2.819l0.225,0.69h0.726h2.952l-2.392,1.739l-0.588,0.427
			l0.225,0.691l0.921,2.83l-2.397-1.744l-0.588-0.428l-0.588,0.427l-2.409,1.749l0.923-2.835l0.225-0.69l-0.587-0.427l-2.388-1.739
			h2.947h0.725l0.226-0.689L367.392,582.722 M367.395,579.5l-1.876,5.732H359.5l4.87,3.548l-1.876,5.762l4.901-3.558l4.891,3.558
			l-1.876-5.762l4.881-3.548h-6.029L367.395,579.5L367.395,579.5z"/>
	</g>
</g>
</svg>
